<svg
  xmlns="http://www.w3.org/2000/svg"
  width="32"
  height="32"
  viewBox="0 0 32 32"
  role="img"
  aria-label="Buzz portfolio icon"
>
  <!-- Retro pixel-style "B" mark -->
  <rect width="32" height="32" fill="#111111" />

  <!-- Shadow -->
  <g fill="#000000" opacity="0.5">
    <rect x="9" y="7" width="2" height="18" />
    <rect x="11" y="7" width="2" height="2" />
    <rect x="11" y="15" width="2" height="2" />
    <rect x="11" y="23" width="2" height="2" />
    <rect x="17" y="9" width="2" height="4" />
    <rect x="17" y="17" width="2" height="4" />
  </g>

  <!-- Outline -->
  <g fill="#d7b05b">
    <rect x="7" y="6" width="2" height="20" />
    <rect x="9" y="6" width="8" height="2" />
    <rect x="9" y="14" width="8" height="2" />
    <rect x="9" y="24" width="8" height="2" />
    <rect x="17" y="8" width="2" height="6" />
    <rect x="17" y="16" width="2" height="8" />
    <rect x="19" y="10" width="2" height="2" />
    <rect x="19" y="18" width="2" height="2" />
  </g>

  <!-- Fill -->
  <g fill="#a20000">
    <rect x="9" y="8" width="6" height="6" />
    <rect x="9" y="16" width="6" height="8" />
    <rect x="15" y="10" width="2" height="2" />
    <rect x="15" y="18" width="2" height="2" />
  </g>
</svg>


